<?xml version="1.0" encoding="utf-8"?>
<!-- Generator: Adobe Illustrator 16.2.1, SVG Export Plug-In . SVG Version: 6.00 Build 0)  -->
<!DOCTYPE svg PUBLIC "-//W3C//DTD SVG 1.1//EN" "http://www.w3.org/Graphics/SVG/1.1/DTD/svg11.dtd">
<svg version="1.1" xmlns="http://www.w3.org/2000/svg" xmlns:xlink="http://www.w3.org/1999/xlink" x="0px" y="0px" width="600px"
	 height="600px" viewBox="0 0 600 600" enable-background="new 0 0 600 600" xml:space="preserve">
<g id="Moduli" display="none">
</g>
<g id="Livello_2">
	<g>
		<g>
			<path fill="#313131" d="M562.688,575H37.312C30.513,575,25,569.488,25,562.687V37.312C25,30.513,30.513,25,37.312,25h525.375
				c6.8,0,12.312,5.513,12.312,12.313v525.375C575,569.488,569.487,575,562.688,575L562.688,575z M49.626,550.373h500.749V49.626
				H49.626V550.373L49.626,550.373z"/>
		</g>
		<path fill="#313131" d="M198.055,167.845h-58.789c-5.129,0-9.14,4.017-9.14,9.142c0,5.117,4.101,9.28,9.14,9.28h20.184v71.954
			c0,5.039,4.101,9.139,9.139,9.139c5.134,0,9.149-4.016,9.149-9.139v-71.954h20.317c4.96,0,9.144-4.248,9.144-9.28
			C207.198,171.948,203.099,167.845,198.055,167.845z"/>
		<path fill="#313131" d="M198.055,330.675h-58.789c-5.129,0-9.14,4.016-9.14,9.142c0,5.117,4.101,9.28,9.14,9.28h20.184v71.954
			c0,5.038,4.101,9.138,9.139,9.138c5.134,0,9.149-4.013,9.149-9.138v-71.954h20.317c4.96,0,9.144-4.248,9.144-9.28
			C207.198,334.778,203.099,330.675,198.055,330.675z"/>
		<path fill="#313131" d="M332.179,167.845c-5.188,0-9.26,4.007-9.26,9.118v48.949c0,12.642-10.274,22.925-22.913,22.925
			c-12.645,0-22.925-10.284-22.925-22.925v-48.949c0-5.026-4.154-9.118-9.254-9.118c-5.116,0-9.12,4.007-9.12,9.118v48.949
			c0,22.775,18.523,41.302,41.299,41.302c22.77,0,41.293-18.527,41.293-41.302v-48.949
			C341.299,171.852,337.295,167.845,332.179,167.845z"/>
		<path fill="#313131" d="M447.448,216.65l26.051-35.377c2.964-4.365,2.045-9.989-2.032-12.761
			c-4.082-3.097-9.907-2.186-12.975,2.008l-22.359,30.612l-22.444-30.546c-1.636-2.501-4.383-3.992-7.359-3.992
			c-1.997,0-3.969,0.688-5.459,1.873c-4.125,2.805-5.122,8.549-2.194,12.854l26.009,35.329l-26.027,35.62
			c-1.419,2-1.979,4.552-1.539,7.005c0.439,2.408,1.768,4.479,3.674,5.769c3.77,2.928,9.523,2.23,12.849-1.996l22.492-30.742
			l22.396,30.783c1.906,2.426,4.648,3.815,7.522,3.815c1.815,0,3.672-0.628,5.355-1.804c1.931-1.314,3.229-3.337,3.656-5.694
			c0.451-2.483-0.126-5.084-1.593-7.155L447.448,216.65z"/>
		<path fill="#313131" d="M447.448,380.334l26.051-35.377c2.964-4.365,2.045-9.989-2.032-12.761
			c-4.082-3.096-9.907-2.186-12.975,2.008l-22.359,30.612l-22.444-30.546c-1.636-2.501-4.383-3.992-7.359-3.992
			c-1.997,0-3.969,0.689-5.459,1.873c-4.125,2.805-5.122,8.55-2.194,12.854l26.009,35.329l-26.027,35.62
			c-1.419,2-1.979,4.552-1.539,7.005c0.439,2.408,1.768,4.479,3.674,5.769c3.77,2.928,9.523,2.23,12.849-1.996l22.492-30.741
			l22.396,30.783c1.906,2.426,4.648,3.814,7.522,3.814c1.815,0,3.672-0.628,5.355-1.804c1.931-1.313,3.229-3.336,3.656-5.694
			c0.451-2.482-0.126-5.083-1.593-7.155L447.448,380.334z"/>
		<path fill="#313131" d="M317.262,406.843h-34.373l-6.933,18.392c-1.274,3.109-4.243,4.954-7.353,4.954
			c-0.998,0-1.846-0.141-2.694-0.427c-4.101-1.551-6.084-6.078-4.665-10.185l31.265-83.323c1.269-3.111,4.383-5.098,7.497-4.957
			c3.247-0.142,6.224,1.846,7.498,4.957l31.264,83.323c1.414,4.107-0.564,8.634-4.671,10.185c-0.704,0.286-1.695,0.427-2.683,0.427
			c-3.12,0-6.085-1.845-7.214-4.954L317.262,406.843z M311.465,391.283l-11.459-30.414l-11.459,30.414H311.465z"/>
	</g>
	<g display="none">
		<g display="inline">
			<path d="M562.687,574.999H37.313c-6.8,0-12.313-5.514-12.313-12.312V37.314c0-6.8,5.514-12.313,12.313-12.313h525.373
				c6.8,0,12.313,5.513,12.313,12.313v525.372C575,569.485,569.486,574.999,562.687,574.999L562.687,574.999z M49.628,550.372
				h500.744V49.627H49.628V550.372L49.628,550.372z"/>
		</g>
		<path display="inline" d="M325.317,125.188h-50.653c-4.461,0-7.955,3.497-7.955,7.958c0,4.454,3.571,8.076,7.955,8.076h17.31
			v61.91c0,4.386,3.571,7.954,7.96,7.954c4.461,0,7.96-3.493,7.96-7.954v-61.91h17.424c4.317,0,7.961-3.699,7.961-8.076
			C333.278,128.758,329.707,125.188,325.317,125.188z"/>
		<path display="inline" d="M194.267,256.931h-51.231c-4.516,0-8.051,3.537-8.051,8.05c0,4.503,3.607,8.169,8.051,8.169h17.508
			v62.625c0,4.439,3.607,8.048,8.045,8.048c4.515,0,8.056-3.536,8.056-8.048v-62.625h17.623c4.365,0,8.057-3.743,8.057-8.169
			C202.323,260.543,198.71,256.931,194.267,256.931z"/>
		<path display="inline" d="M459.863,123.906c-4.654,0-8.291,3.588-8.291,8.167v43.385c0,11.159-9.073,20.237-20.232,20.237
			c-11.158,0-20.237-9.079-20.237-20.237v-43.385c0-4.503-3.717-8.167-8.285-8.167c-4.576,0-8.164,3.588-8.164,8.167v43.385
			c0,20.233,16.455,36.69,36.687,36.69c20.232,0,36.688-16.458,36.688-36.69v-43.385
			C468.027,127.494,464.438,123.906,459.863,123.906z"/>
		<path display="inline" d="M441.411,299.488l22.864-31.049c2.627-3.876,1.811-8.868-1.803-11.326
			c-3.632-2.748-8.803-1.939-11.521,1.783l-19.588,26.814l-19.661-26.752c-1.448-2.221-3.896-3.546-6.535-3.546
			c-1.773,0-3.523,0.61-4.845,1.66c-1.812,1.229-3.002,3.103-3.356,5.274c-0.342,2.121,0.145,4.286,1.407,6.139l22.828,31.004
			l-22.84,31.26c-1.263,1.775-1.762,4.042-1.364,6.218c0.384,2.14,1.562,3.976,3.253,5.123c3.354,2.591,8.458,1.975,11.411-1.772
			l19.702-26.931l19.618,26.97c1.689,2.149,4.125,3.383,6.68,3.383c1.605,0,3.253-0.556,4.75-1.599
			c1.713-1.167,2.867-2.962,3.247-5.054c0.396-2.205-0.109-4.515-1.413-6.354L441.411,299.488z"/>
		<path display="inline" d="M310.064,431.255l22.865-31.047c2.628-3.879,1.81-8.869-1.804-11.328
			c-3.632-2.748-8.802-1.936-11.521,1.786l-19.588,26.812l-19.659-26.752c-1.45-2.222-3.896-3.547-6.536-3.547
			c-1.773,0-3.523,0.613-4.847,1.66c-1.81,1.232-2.999,3.102-3.354,5.276c-0.343,2.119,0.145,4.283,1.406,6.138l22.83,31.003
			l-22.842,31.262c-1.263,1.776-1.762,4.043-1.365,6.22c0.386,2.14,1.563,3.974,3.253,5.122c3.355,2.591,8.46,1.972,11.412-1.773
			l19.702-26.929l19.618,26.968c1.69,2.149,4.124,3.382,6.68,3.382c1.605,0,3.253-0.553,4.75-1.599
			c1.714-1.167,2.868-2.961,3.247-5.051c0.397-2.206-0.108-4.515-1.413-6.354L310.064,431.255z"/>
		<path display="inline" d="M203.207,465.496l-27.867-74.274c-1.136-2.774-3.789-4.542-6.686-4.416
			c-2.772-0.126-5.55,1.642-6.681,4.416l-27.872,74.274c-1.264,3.662,0.504,7.699,4.16,9.078c0.757,0.256,1.515,0.382,2.398,0.382
			c2.771,0,5.418-1.645,6.554-4.416l6.181-16.396h30.645l6.182,16.396c1.01,2.771,3.654,4.416,6.433,4.416
			c0.878,0,1.762-0.126,2.393-0.382C202.702,473.194,204.47,469.157,203.207,465.496z M158.438,440.273l10.216-27.11l10.215,27.11
			H158.438z"/>
		<g display="inline">
			<path d="M334.751,271.06h-69.497c-4.25,0-7.695-3.445-7.695-7.695c0-4.251,3.445-7.696,7.695-7.696h69.497
				c4.25,0,7.696,3.445,7.696,7.696C342.447,267.615,339.001,271.06,334.751,271.06L334.751,271.06z"/>
		</g>
		<g display="inline">
			<path d="M334.751,307.271h-69.497c-4.25,0-7.695-3.445-7.695-7.696c0-4.251,3.445-7.696,7.695-7.696h69.497
				c4.25,0,7.696,3.445,7.696,7.696C342.447,303.826,339.001,307.271,334.751,307.271L334.751,307.271z"/>
		</g>
		<g display="inline">
			<path d="M334.751,340.533h-69.497c-4.25,0-7.695-3.445-7.695-7.695c0-4.251,3.445-7.696,7.695-7.696h69.497
				c4.25,0,7.696,3.445,7.696,7.696C342.447,337.088,339.001,340.533,334.751,340.533L334.751,340.533z"/>
		</g>
	</g>
	<g display="none">
		<g display="inline">
			<path d="M562.687,575.002H37.313c-6.8,0-12.313-5.514-12.313-12.313V37.31c0-6.8,5.514-12.313,12.313-12.313h525.373
				c6.8,0,12.313,5.513,12.313,12.313v525.379C575,569.489,569.486,575.002,562.687,575.002L562.687,575.002z M49.627,550.375
				h500.746V49.624H49.627V550.375L49.627,550.375z"/>
		</g>
		<g display="inline">
			<path d="M431.345,473.125c-23.036,0-41.78-18.744-41.78-41.78c0-23.04,18.744-41.78,41.78-41.78
				c23.04,0,41.78,18.741,41.78,41.78C473.125,454.381,454.385,473.125,431.345,473.125L431.345,473.125z M431.345,408.034
				c-12.852,0-23.311,10.456-23.311,23.31c0,12.852,10.459,23.31,23.311,23.31c12.854,0,23.311-10.458,23.311-23.31
				C454.655,418.49,444.199,408.034,431.345,408.034L431.345,408.034z"/>
		</g>
		<g display="inline">
			<path d="M431.345,341.603c-23.036,0-41.78-18.741-41.78-41.78c0-23.037,18.744-41.781,41.78-41.781
				c23.04,0,41.78,18.744,41.78,41.781C473.125,322.862,454.385,341.603,431.345,341.603L431.345,341.603z M431.345,276.512
				c-12.852,0-23.311,10.458-23.311,23.31c0,12.854,10.459,23.31,23.311,23.31c12.854,0,23.311-10.456,23.311-23.31
				C454.655,286.971,444.199,276.512,431.345,276.512L431.345,276.512z"/>
		</g>
		<g display="inline">
			<path d="M431.345,210.435c-23.036,0-41.78-18.741-41.78-41.78c0-23.037,18.744-41.78,41.78-41.78
				c23.04,0,41.78,18.744,41.78,41.78C473.125,191.694,454.385,210.435,431.345,210.435L431.345,210.435z M431.345,145.345
				c-12.852,0-23.311,10.458-23.311,23.31c0,12.854,10.459,23.31,23.311,23.31c12.854,0,23.311-10.456,23.311-23.31
				C454.655,155.803,444.199,145.345,431.345,145.345L431.345,145.345z"/>
		</g>
		<g display="inline">
			<path d="M201.489,468.651c-5.099,0-9.235-4.133-9.235-9.235v-126.58c0-5.099,4.137-9.235,9.235-9.235
				c5.102,0,9.235,4.136,9.235,9.235v126.58C210.725,464.518,206.591,468.651,201.489,468.651L201.489,468.651z"/>
		</g>
		<g display="inline">
			<path d="M135.821,468.651c-5.102,0-9.235-4.133-9.235-9.235V134.913c0-5.102,4.134-9.235,9.235-9.235
				c5.099,0,9.235,4.134,9.235,9.235v324.503C145.057,464.518,140.92,468.651,135.821,468.651L135.821,468.651z"/>
		</g>
		<g display="inline">
			<path d="M267.169,468.651c-5.102,0-9.235-4.133-9.235-9.235V234.326c0-5.099,4.134-9.235,9.235-9.235
				c5.099,0,9.235,4.137,9.235,9.235v225.091C276.404,464.518,272.268,468.651,267.169,468.651L267.169,468.651z"/>
		</g>
		<g display="inline">
			<path d="M332.843,468.651c-5.102,0-9.235-4.133-9.235-9.235V300.814c0-5.102,4.134-9.235,9.235-9.235
				c5.099,0,9.235,4.133,9.235,9.235v158.603C342.078,464.518,337.941,468.651,332.843,468.651L332.843,468.651z"/>
		</g>
	</g>
	<g display="none">
		<g display="inline">
			<path d="M562.686,575H37.314C30.514,575,25,569.486,25,562.686V37.314C25,30.514,30.514,25,37.314,25h525.371
				C569.486,25,575,30.514,575,37.314v525.372C575,569.486,569.486,575,562.686,575L562.686,575z M49.627,550.373h500.746V49.627
				H49.627V550.373L49.627,550.373z"/>
		</g>
		<g display="inline">
			<path d="M168.66,125.337c-23.887,0-43.318,19.434-43.318,43.319s19.432,43.319,43.318,43.319s43.318-19.434,43.318-43.319
				S192.547,125.337,168.66,125.337z"/>
			<path d="M300,256.681c-23.887,0-43.318,19.433-43.318,43.318s19.432,43.319,43.318,43.319s43.318-19.434,43.318-43.319
				S323.887,256.681,300,256.681z"/>
			<path d="M431.346,388.024c-23.887,0-43.318,19.434-43.318,43.318c0,23.886,19.432,43.319,43.318,43.319
				s43.318-19.434,43.318-43.319C474.664,407.458,455.232,388.024,431.346,388.024z"/>
		</g>
		<path display="inline" d="M325.318,125.187h-50.654c-4.461,0-7.955,3.497-7.955,7.958c0,4.453,3.572,8.076,7.955,8.076h17.309
			v61.909c0,4.386,3.572,7.954,7.961,7.954c4.461,0,7.961-3.493,7.961-7.954v-61.909h17.424c4.316,0,7.961-3.699,7.961-8.076
			C333.279,128.757,329.707,125.187,325.318,125.187z"/>
		<path display="inline" d="M194.268,256.93h-51.232c-4.516,0-8.051,3.537-8.051,8.051c0,4.503,3.607,8.169,8.051,8.169h17.508
			v62.625c0,4.438,3.607,8.048,8.045,8.048c4.516,0,8.057-3.536,8.057-8.048V273.15h17.623c4.363,0,8.057-3.742,8.057-8.169
			C202.324,260.542,198.709,256.93,194.268,256.93z"/>
		<path display="inline" d="M459.863,123.906c-4.654,0-8.291,3.588-8.291,8.166v43.385c0,11.159-9.074,20.238-20.232,20.238
			s-20.238-9.079-20.238-20.238v-43.385c0-4.504-3.715-8.166-8.285-8.166c-4.574,0-8.164,3.588-8.164,8.166v43.385
			c0,20.233,16.455,36.69,36.688,36.69s36.688-16.457,36.688-36.69v-43.385C468.027,127.494,464.438,123.906,459.863,123.906z"/>
		<path display="inline" d="M441.41,299.487l22.865-31.049c2.627-3.877,1.811-8.868-1.803-11.326
			c-3.633-2.747-8.803-1.938-11.52,1.783l-19.59,26.813l-19.66-26.752c-1.449-2.222-3.896-3.546-6.535-3.546
			c-1.773,0-3.523,0.61-4.846,1.659c-1.811,1.229-3,3.103-3.355,5.274c-0.342,2.121,0.145,4.285,1.408,6.139l22.828,31.004
			l-22.842,31.26c-1.262,1.775-1.762,4.042-1.363,6.219c0.385,2.141,1.562,3.976,3.252,5.122c3.355,2.592,8.459,1.976,11.412-1.771
			l19.701-26.931l19.619,26.97c1.689,2.149,4.125,3.383,6.68,3.383c1.605,0,3.252-0.556,4.75-1.599
			c1.713-1.167,2.867-2.963,3.246-5.054c0.396-2.205-0.107-4.516-1.412-6.355L441.41,299.487z"/>
		<path display="inline" d="M310.064,431.255l22.865-31.049c2.627-3.877,1.811-8.868-1.803-11.326
			c-3.633-2.747-8.803-1.938-11.521,1.783l-19.588,26.813l-19.66-26.752c-1.449-2.222-3.896-3.546-6.535-3.546
			c-1.773,0-3.523,0.61-4.846,1.659c-1.811,1.229-3,3.103-3.355,5.274c-0.342,2.121,0.145,4.285,1.406,6.139l22.83,31.004
			l-22.842,31.26c-1.262,1.775-1.762,4.042-1.363,6.219c0.385,2.14,1.562,3.976,3.252,5.122c3.355,2.592,8.459,1.976,11.412-1.771
			l19.701-26.932l19.619,26.971c1.689,2.149,4.125,3.383,6.68,3.383c1.605,0,3.252-0.556,4.75-1.599
			c1.713-1.167,2.867-2.963,3.246-5.054c0.396-2.205-0.107-4.516-1.412-6.355L310.064,431.255z"/>
		<path display="inline" d="M203.207,465.495l-27.867-74.273c-1.137-2.773-3.787-4.544-6.686-4.418
			c-2.771-0.126-5.549,1.645-6.68,4.418l-27.873,74.273c-1.264,3.661,0.504,7.698,4.16,9.078c0.758,0.256,1.516,0.382,2.398,0.382
			c2.771,0,5.418-1.645,6.555-4.416l6.18-16.394h30.645l6.182,16.394c1.01,2.771,3.654,4.416,6.434,4.416
			c0.877,0,1.762-0.126,2.393-0.382C202.701,473.193,204.469,469.156,203.207,465.495z M158.439,440.274l10.215-27.112
			l10.215,27.112H158.439z"/>
	</g>
	<g display="none">
		<g display="inline">
			<path d="M562.688,574.998H37.313c-6.8,0-12.312-5.513-12.312-12.312V37.314c0-6.8,5.513-12.313,12.312-12.313h525.374
				c6.8,0,12.313,5.513,12.313,12.313v525.371C575.001,569.485,569.487,574.998,562.688,574.998L562.688,574.998z M49.627,550.372
				h500.747V49.627H49.627V550.372L49.627,550.372z"/>
		</g>
		<g display="inline">
			<path d="M343.321,352.659h-217.98c-5.102,0-9.235-4.137-9.235-9.235v-217.98c0-5.099,4.134-9.235,9.235-9.235h217.98
				c5.098,0,9.234,4.136,9.234,9.235v217.98C352.556,348.522,348.419,352.659,343.321,352.659L343.321,352.659z M134.575,334.188
				h199.511v-199.51H134.575V334.188L134.575,334.188z"/>
		</g>
		<g display="inline">
			<path d="M168.653,473.122c-23.036,0-41.779-18.744-41.779-41.78c0-23.04,18.743-41.78,41.779-41.78s41.78,18.74,41.78,41.78
				C210.434,454.378,191.689,473.122,168.653,473.122L168.653,473.122z M168.653,408.032c-12.852,0-23.31,10.456-23.31,23.31
				c0,12.851,10.458,23.31,23.31,23.31s23.31-10.458,23.31-23.31C191.963,418.488,181.505,408.032,168.653,408.032L168.653,408.032z
				"/>
		</g>
		<g display="inline">
			<path d="M299.999,473.122c-23.036,0-41.78-18.744-41.78-41.78c0-23.04,18.744-41.78,41.78-41.78s41.779,18.74,41.779,41.78
				C341.778,454.378,323.035,473.122,299.999,473.122L299.999,473.122z M299.999,408.032c-12.852,0-23.31,10.456-23.31,23.31
				c0,12.851,10.458,23.31,23.31,23.31s23.31-10.458,23.31-23.31C323.309,418.488,312.851,408.032,299.999,408.032L299.999,408.032z
				"/>
		</g>
		<g display="inline">
			<path d="M431.348,473.122c-23.039,0-41.783-18.744-41.783-41.78c0-23.04,18.744-41.78,41.783-41.78
				c23.033,0,41.779,18.74,41.779,41.78C473.127,454.378,454.381,473.122,431.348,473.122L431.348,473.122z M431.348,408.032
				c-12.854,0-23.312,10.456-23.312,23.31c0,12.851,10.458,23.31,23.312,23.31c12.849,0,23.31-10.458,23.31-23.31
				C454.657,418.488,444.196,408.032,431.348,408.032L431.348,408.032z"/>
		</g>
		<g display="inline">
			<path d="M474.3,177.892h-69.5c-5.102,0-9.234-4.134-9.234-9.235c0-5.098,4.133-9.235,9.234-9.235h69.5
				c5.099,0,9.235,4.137,9.235,9.235C483.535,173.758,479.398,177.892,474.3,177.892L474.3,177.892z"/>
		</g>
		<g display="inline">
			<path d="M474.3,243.562h-69.5c-5.102,0-9.234-4.133-9.234-9.235c0-5.099,4.133-9.235,9.234-9.235h69.5
				c5.099,0,9.235,4.136,9.235,9.235C483.535,239.428,479.398,243.562,474.3,243.562L474.3,243.562z"/>
		</g>
		<g display="inline">
			<path d="M474.3,309.057h-69.5c-5.102,0-9.234-4.133-9.234-9.235c0-5.099,4.133-9.235,9.234-9.235h69.5
				c5.099,0,9.235,4.136,9.235,9.235C483.535,304.924,479.398,309.057,474.3,309.057L474.3,309.057z"/>
		</g>
	</g>
	<g display="none">
		<g display="inline">
			<path d="M562.687,575H37.313C30.514,575,25,569.487,25,562.687V37.312c0-6.8,5.514-12.313,12.313-12.313h525.373
				c6.8,0,12.313,5.513,12.313,12.313v525.375C575,569.487,569.486,575,562.687,575L562.687,575z M49.627,550.374h500.746V49.625
				H49.627V550.374L49.627,550.374z"/>
		</g>
		<g display="inline">
			<path d="M431.347,212.22c-24.025,0-43.572-19.543-43.572-43.565c0-24.025,19.547-43.572,43.572-43.572
				c24.019,0,43.565,19.546,43.565,43.572C474.912,192.677,455.365,212.22,431.347,212.22L431.347,212.22z M431.347,143.552
				c-13.841,0-25.103,11.261-25.103,25.102c0,13.837,11.262,25.096,25.103,25.096c13.834,0,25.096-11.258,25.096-25.096
				C456.442,154.813,445.181,143.552,431.347,143.552L431.347,143.552z"/>
		</g>
		<g display="inline">
			<path d="M168.653,343.392c-24.025,0-43.565-19.546-43.565-43.571c0-24.022,19.54-43.566,43.565-43.566
				s43.572,19.543,43.572,43.566C212.226,323.846,192.679,343.392,168.653,343.392L168.653,343.392z M168.653,274.725
				c-13.84,0-25.096,11.258-25.096,25.096c0,13.84,11.256,25.102,25.096,25.102c13.841,0,25.102-11.261,25.102-25.102
				C193.755,285.983,182.494,274.725,168.653,274.725L168.653,274.725z"/>
		</g>
		<g display="inline">
			<path d="M168.653,474.913c-24.025,0-43.565-19.546-43.565-43.572c0-24.022,19.54-43.566,43.565-43.566
				s43.572,19.543,43.572,43.566C212.226,455.366,192.679,474.913,168.653,474.913L168.653,474.913z M168.653,406.245
				c-13.84,0-25.096,11.258-25.096,25.096c0,13.84,11.256,25.102,25.096,25.102c13.841,0,25.102-11.261,25.102-25.102
				C193.755,417.503,182.494,406.245,168.653,406.245L168.653,406.245z"/>
		</g>
		<g display="inline">
			<path d="M431.347,343.392c-24.025,0-43.572-19.546-43.572-43.571c0-24.022,19.547-43.566,43.572-43.566
				c24.019,0,43.565,19.543,43.565,43.566C474.912,323.846,455.365,343.392,431.347,343.392L431.347,343.392z M431.347,274.725
				c-13.841,0-25.103,11.258-25.103,25.096c0,13.84,11.262,25.102,25.103,25.102c13.834,0,25.096-11.261,25.096-25.102
				C456.442,285.983,445.181,274.725,431.347,274.725L431.347,274.725z"/>
		</g>
		<g display="inline">
			<path d="M300,474.913c-24.025,0-43.571-19.546-43.571-43.572c0-24.022,19.546-43.566,43.571-43.566
				c24.02,0,43.565,19.543,43.565,43.566C343.565,455.366,324.02,474.913,300,474.913L300,474.913z M300,406.245
				c-13.841,0-25.102,11.258-25.102,25.096c0,13.84,11.261,25.102,25.102,25.102c13.834,0,25.096-11.261,25.096-25.102
				C325.096,417.503,313.834,406.245,300,406.245L300,406.245z"/>
		</g>
		<g display="inline">
			<path d="M300,213.44c-24.699,0-44.786-20.09-44.786-44.786c0-24.691,20.087-44.78,44.786-44.78
				c24.692,0,44.78,20.089,44.78,44.78C344.78,193.35,324.692,213.44,300,213.44L300,213.44z M300,142.344
				c-14.514,0-26.316,11.802-26.316,26.31c0,14.511,11.803,26.316,26.316,26.316c14.508,0,26.311-11.805,26.311-26.316
				C326.311,154.146,314.508,142.344,300,142.344L300,142.344z"/>
		</g>
		<path display="inline" d="M178.725,168.564l22.865-31.048c2.633-3.878,1.815-8.868-1.798-11.327
			c-3.632-2.748-8.803-1.936-11.526,1.786l-19.582,26.815l-19.666-26.755c-1.449-2.219-3.891-3.547-6.536-3.547
			c-1.773,0-3.522,0.613-4.846,1.659c-1.804,1.233-2.994,3.103-3.349,5.279c-0.349,2.117,0.145,4.281,1.4,6.139l22.835,31
			l-22.847,31.264c-1.257,1.774-1.756,4.041-1.365,6.217c0.385,2.141,1.569,3.974,3.259,5.123c3.355,2.591,8.454,1.972,11.406-1.773
			l19.708-26.93l19.612,26.972c1.695,2.146,4.131,3.379,6.68,3.379c1.611,0,3.259-0.553,4.756-1.599
			c1.714-1.167,2.868-2.958,3.247-5.05c0.396-2.207-0.114-4.516-1.413-6.355L178.725,168.564z"/>
		<path display="inline" d="M310.064,299.91l22.865-31.048c2.634-3.878,1.815-8.868-1.798-11.327
			c-3.631-2.748-8.802-1.936-11.52,1.786l-19.588,26.815l-19.661-26.755c-1.448-2.218-3.896-3.547-6.541-3.547
			c-1.768,0-3.518,0.613-4.84,1.66c-1.81,1.232-3,3.102-3.355,5.279c-0.343,2.116,0.145,4.281,1.407,6.139l22.829,31l-22.848,31.265
			c-1.256,1.773-1.755,4.04-1.364,6.217c0.391,2.14,1.569,3.974,3.259,5.123c3.354,2.591,8.459,1.972,11.405-1.774l19.709-26.929
			l19.618,26.971c1.689,2.146,4.124,3.379,6.68,3.379c1.605,0,3.253-0.553,4.75-1.6c1.713-1.167,2.867-2.958,3.246-5.05
			c0.397-2.207-0.114-4.515-1.413-6.355L310.064,299.91z"/>
		<path display="inline" d="M441.411,431.257l22.865-31.048c2.633-3.878,1.815-8.868-1.798-11.327
			c-3.632-2.748-8.803-1.936-11.525,1.786l-19.583,26.815l-19.666-26.755c-1.449-2.218-3.891-3.547-6.536-3.547
			c-1.773,0-3.522,0.613-4.846,1.659c-1.804,1.232-2.994,3.103-3.349,5.279c-0.349,2.116,0.145,4.281,1.4,6.139l22.835,31
			l-22.847,31.264c-1.257,1.773-1.756,4.041-1.364,6.217c0.385,2.141,1.568,3.974,3.258,5.123c3.355,2.591,8.454,1.972,11.406-1.773
			l19.708-26.93l19.612,26.972c1.695,2.146,4.131,3.379,6.68,3.379c1.611,0,3.259-0.553,4.756-1.6
			c1.714-1.166,2.868-2.958,3.247-5.05c0.396-2.207-0.114-4.515-1.413-6.355L441.411,431.257z"/>
	</g>
	<g display="none">
		<path display="inline" d="M255.983,216.378h-96.078c-8.465,0-15.091,6.632-15.091,15.094c0,8.447,6.764,15.319,15.091,15.319
			h32.828v117.434c0,8.318,6.77,15.085,15.097,15.085c8.466,0,15.104-6.625,15.104-15.085V246.792h33.05
			c8.183,0,15.097-7.017,15.097-15.319C271.08,223.151,264.311,216.378,255.983,216.378z"/>
		<path display="inline" d="M393.492,297.681l43.367-58.897c4.99-7.354,3.439-16.82-3.415-21.482
			c-6.884-5.213-16.69-3.68-21.849,3.382l-37.156,50.859L337.145,220.8c-2.748-4.214-7.383-6.728-12.397-6.728
			c-3.361,0-6.68,1.157-9.188,3.147c-3.427,2.333-5.688,5.886-6.36,10.004c-0.655,4.022,0.271,8.129,2.663,11.646l43.308,58.81
			l-43.338,59.294c-2.381,3.367-3.33,7.666-2.585,11.796c0.733,4.059,2.976,7.54,6.175,9.716c6.361,4.916,16.041,3.746,21.639-3.364
			l37.379-51.081l37.21,51.156c3.211,4.077,7.828,6.418,12.675,6.418c3.042,0,6.174-1.056,9.012-3.033
			c3.253-2.213,5.436-5.619,6.157-9.587c0.758-4.182-0.21-8.564-2.682-12.052L393.492,297.681z"/>
		<g display="inline">
			<path d="M562.687,575.001H37.313c-6.8,0-12.313-5.514-12.313-12.313V37.312c0-6.8,5.514-12.313,12.313-12.313h525.373
				c6.8,0,12.313,5.513,12.313,12.313v525.376C575,569.488,569.486,575.001,562.687,575.001L562.687,575.001z M49.627,550.375
				h500.746V49.625H49.627V550.375L49.627,550.375z"/>
		</g>
	</g>
	<g display="none">
		<g display="inline">
			<path d="M562.687,575H37.313C30.514,575,25,569.487,25,562.687V37.312c0-6.8,5.514-12.313,12.313-12.313h525.373
				c6.8,0,12.313,5.513,12.313,12.313v525.375C575,569.487,569.486,575,562.687,575L562.687,575z M49.627,550.374h500.746V49.625
				H49.627V550.374L49.627,550.374z"/>
		</g>
		<g display="inline">
			<path d="M168.66,211.975c-23.888,0-43.319-19.433-43.319-43.319s19.432-43.319,43.319-43.319
				c23.881,0,43.318,19.434,43.318,43.319S192.541,211.975,168.66,211.975L168.66,211.975z M168.66,146.885
				c-12.007,0-21.771,9.766-21.771,21.771c0,12.005,9.765,21.771,21.771,21.771c12,0,21.771-9.766,21.771-21.771
				C190.431,156.65,180.66,146.885,168.66,146.885L168.66,146.885z"/>
		</g>
		<g display="inline">
			<path d="M431.347,474.66c-23.888,0-43.319-19.434-43.319-43.319c0-23.887,19.432-43.322,43.319-43.322
				c23.881,0,43.319,19.435,43.319,43.322C474.666,455.227,455.228,474.66,431.347,474.66L431.347,474.66z M431.347,409.567
				c-12.007,0-21.771,9.767-21.771,21.774c0,12.005,9.765,21.771,21.771,21.771c12,0,21.771-9.766,21.771-21.771
				C453.117,419.334,443.347,409.567,431.347,409.567L431.347,409.567z"/>
		</g>
		<path display="inline" d="M340.289,255.274h-30.002v100.775c0,5.854-4.527,10.383-10.383,10.383
			c-5.658,0-10.378-4.529-10.378-10.383V255.274h-29.821c-5.844,0-10.384-4.905-10.384-10.57c0-5.847,4.54-10.377,10.384-10.377
			h80.584c5.657,0,10.383,4.531,10.383,10.377C350.672,250.37,345.946,255.274,340.289,255.274z"/>
	</g>
	<g display="none">
		<g display="inline">
			<path d="M562.687,575H37.313C30.514,575,25,569.486,25,562.686V37.313C25,30.513,30.514,25,37.313,25h525.373
				c6.8,0,12.313,5.513,12.313,12.313v525.373C575,569.486,569.486,575,562.687,575L562.687,575z M49.627,550.373h500.746V49.626
				H49.627V550.373L49.627,550.373z"/>
		</g>
		<g display="inline">
			<path d="M300,473.12c-23.039,0-41.78-18.743-41.78-41.78s18.741-41.78,41.78-41.78s41.78,18.743,41.78,41.78
				S323.039,473.12,300,473.12L300,473.12z M300,408.03c-12.854,0-23.31,10.456-23.31,23.31s10.455,23.31,23.31,23.31
				s23.31-10.456,23.31-23.31S312.854,408.03,300,408.03L300,408.03z"/>
		</g>
		<g display="inline">
			<path d="M299.994,341.864c-23.033,0-41.78-18.744-41.78-41.78c0-23.036,18.747-41.78,41.78-41.78
				c23.039,0,41.78,18.744,41.78,41.78C341.774,323.12,323.033,341.864,299.994,341.864L299.994,341.864z M299.994,276.774
				c-12.849,0-23.311,10.455-23.311,23.31s10.462,23.31,23.311,23.31c12.854,0,23.31-10.456,23.31-23.31
				S312.849,276.774,299.994,276.774L299.994,276.774z"/>
		</g>
		<g display="inline">
			<path d="M300,210.433c-23.039,0-41.78-18.744-41.78-41.78c0-23.037,18.741-41.78,41.78-41.78s41.78,18.744,41.78,41.78
				C341.78,191.689,323.039,210.433,300,210.433L300,210.433z M300,145.343c-12.854,0-23.31,10.456-23.31,23.31
				s10.455,23.31,23.31,23.31s23.31-10.456,23.31-23.31S312.854,145.343,300,145.343L300,145.343z"/>
		</g>
		<g display="inline">
			<path d="M466.092,177.979h-69.497c-5.099,0-9.235-4.134-9.235-9.235c0-5.102,4.137-9.235,9.235-9.235h69.497
				c5.099,0,9.235,4.134,9.235,9.235C475.327,173.845,471.19,177.979,466.092,177.979L466.092,177.979z"/>
		</g>
		<g display="inline">
			<path d="M299.994,276.774c-5.099,0-9.235-4.134-9.235-9.235v-60.033c0-5.102,4.137-9.235,9.235-9.235
				c5.104,0,9.234,4.134,9.234,9.235v60.033C309.229,272.64,305.099,276.774,299.994,276.774L299.994,276.774z"/>
		</g>
		<g display="inline">
			<path d="M299.994,404.921c-5.099,0-9.235-4.133-9.235-9.235v-60.034c0-5.102,4.137-9.235,9.235-9.235
				c5.104,0,9.234,4.133,9.234,9.235v60.034C309.229,400.788,305.099,404.921,299.994,404.921L299.994,404.921z"/>
		</g>
		<g display="inline">
			<path d="M466.092,243.646h-69.497c-5.099,0-9.235-4.133-9.235-9.235s4.137-9.235,9.235-9.235h69.497
				c5.099,0,9.235,4.134,9.235,9.235S471.19,243.646,466.092,243.646L466.092,243.646z"/>
		</g>
		<g display="inline">
			<path d="M466.092,309.145h-69.497c-5.099,0-9.235-4.134-9.235-9.235c0-5.101,4.137-9.235,9.235-9.235h69.497
				c5.099,0,9.235,4.134,9.235,9.235C475.327,305.011,471.19,309.145,466.092,309.145L466.092,309.145z"/>
		</g>
		<g display="inline">
			<path d="M203.405,309.319h-69.497c-5.099,0-9.235-4.134-9.235-9.235s4.137-9.235,9.235-9.235h69.497
				c5.099,0,9.235,4.133,9.235,9.235S208.504,309.319,203.405,309.319L203.405,309.319z"/>
		</g>
		<g display="inline">
			<path d="M203.405,374.992h-69.497c-5.099,0-9.235-4.133-9.235-9.235s4.137-9.235,9.235-9.235h69.497
				c5.099,0,9.235,4.133,9.235,9.235S208.504,374.992,203.405,374.992L203.405,374.992z"/>
		</g>
		<g display="inline">
			<path d="M203.405,440.485h-69.497c-5.099,0-9.235-4.134-9.235-9.235s4.137-9.235,9.235-9.235h69.497
				c5.099,0,9.235,4.133,9.235,9.235S208.504,440.485,203.405,440.485L203.405,440.485z"/>
		</g>
		<path display="inline" d="M178.725,180.185l22.865-31.048c2.633-3.878,1.815-8.868-1.798-11.328
			c-3.632-2.748-8.803-1.936-11.526,1.786l-19.582,26.815l-19.666-26.755c-1.449-2.219-3.891-3.547-6.536-3.547
			c-1.773,0-3.522,0.613-4.846,1.659c-1.804,1.232-2.994,3.103-3.349,5.279c-0.349,2.116,0.145,4.281,1.4,6.139l22.835,31
			l-22.847,31.264c-1.257,1.774-1.756,4.041-1.365,6.217c0.385,2.141,1.569,3.974,3.259,5.123c3.355,2.591,8.454,1.972,11.406-1.773
			l19.708-26.93l19.612,26.972c1.695,2.146,4.131,3.379,6.68,3.379c1.611,0,3.259-0.553,4.756-1.599
			c1.714-1.167,2.868-2.958,3.247-5.051c0.396-2.207-0.114-4.515-1.413-6.355L178.725,180.185z"/>
		<path display="inline" d="M441.411,420.491l22.865-31.048c2.633-3.878,1.815-8.869-1.798-11.328
			c-3.632-2.748-8.803-1.936-11.525,1.786l-19.583,26.815l-19.666-26.755c-1.449-2.218-3.891-3.547-6.536-3.547
			c-1.773,0-3.522,0.613-4.846,1.66c-1.804,1.232-2.994,3.103-3.349,5.279c-0.349,2.116,0.145,4.281,1.4,6.139l22.835,31
			l-22.847,31.264c-1.257,1.773-1.756,4.041-1.364,6.217c0.385,2.141,1.568,3.974,3.258,5.123c3.355,2.591,8.454,1.972,11.406-1.773
			l19.708-26.93l19.612,26.972c1.695,2.146,4.131,3.379,6.68,3.379c1.611,0,3.259-0.553,4.756-1.6
			c1.714-1.166,2.868-2.958,3.247-5.05c0.396-2.207-0.114-4.515-1.413-6.355L441.411,420.491z"/>
	</g>
	<g display="none">
		<g display="inline">
			<path d="M562.687,575H37.313C30.514,575,25,569.486,25,562.686V37.313C25,30.513,30.514,25,37.313,25h525.373
				c6.8,0,12.313,5.513,12.313,12.313v525.373C575,569.486,569.486,575,562.687,575L562.687,575z M49.627,550.373h500.746V49.626
				H49.627V550.373L49.627,550.373z"/>
		</g>
		<g display="inline">
			<path d="M201.226,145.421h-69.494c-5.099,0-9.234-4.133-9.234-9.235s4.136-9.235,9.234-9.235h69.494
				c5.102,0,9.235,4.134,9.235,9.235S206.327,145.421,201.226,145.421L201.226,145.421z"/>
		</g>
		<g display="inline">
			<path d="M203.648,474.079h-69.491c-5.101,0-9.234-4.133-9.234-9.235s4.134-9.235,9.234-9.235h69.491
				c5.102,0,9.235,4.133,9.235,9.235S208.75,474.079,203.648,474.079L203.648,474.079z"/>
		</g>
		<g display="inline">
			<path d="M203.648,408.718h-69.491c-5.101,0-9.234-4.133-9.234-9.235s4.134-9.235,9.234-9.235h69.491
				c5.102,0,9.235,4.133,9.235,9.235S208.75,408.718,203.648,408.718L203.648,408.718z"/>
		</g>
		<g display="inline">
			<path d="M300,473.977c-5.099,0-9.235-4.133-9.235-9.235V135.639c0-5.102,4.137-9.235,9.235-9.235s9.235,4.133,9.235,9.235
				v329.103C309.235,469.843,305.099,473.977,300,473.977L300,473.977z"/>
		</g>
		<path display="inline" d="M209.466,291.131c-1.572-3.108-4.759-5.065-8.24-5.065h-23.087v-85.487c0-5.102-4.137-9.235-9.235-9.235
			s-9.235,4.134-9.235,9.235v85.487h-23.087c-3.476,0-6.656,1.951-8.231,5.047c-1.575,3.099-1.28,6.818,0.77,9.629l32.19,44.164
			c1.737,2.378,4.503,3.788,7.446,3.794c0.006,0,0.012,0,0.018,0c2.938,0,5.703-1.398,7.44-3.767l32.455-44.164
			C210.731,297.964,211.038,294.237,209.466,291.131z M168.804,323.827l-14.062-19.291h28.237L168.804,323.827z"/>
		<g display="inline">
			<path d="M468.515,474.079h-69.491c-5.098,0-9.234-4.133-9.234-9.235s4.137-9.235,9.234-9.235h69.491
				c5.099,0,9.235,4.133,9.235,9.235S473.613,474.079,468.515,474.079L468.515,474.079z"/>
		</g>
		<g display="inline">
			<path d="M466.092,145.421h-69.494c-5.102,0-9.234-4.133-9.234-9.235s4.133-9.235,9.234-9.235h69.494
				c5.099,0,9.235,4.134,9.235,9.235S471.19,145.421,466.092,145.421L466.092,145.421z"/>
		</g>
		<g display="inline">
			<path d="M466.092,210.782h-69.494c-5.102,0-9.234-4.133-9.234-9.235s4.133-9.235,9.234-9.235h69.494
				c5.099,0,9.235,4.133,9.235,9.235S471.19,210.782,466.092,210.782L466.092,210.782z"/>
		</g>
		<path display="inline" d="M390.781,309.899c1.575,3.108,4.762,5.065,8.242,5.065h23.088v85.487c0,5.102,4.134,9.235,9.235,9.235
			c5.099,0,9.234-4.134,9.234-9.235v-85.487h23.088c3.476,0,6.655-1.951,8.23-5.047c1.575-3.1,1.278-6.818-0.77-9.629
			l-32.192-44.164c-1.735-2.377-4.501-3.788-7.447-3.793c-0.006,0-0.012,0-0.018,0c-2.938,0-5.7,1.397-7.44,3.767l-32.452,44.164
			C389.519,303.066,389.212,306.793,390.781,309.899z M431.442,277.204l14.063,19.291h-28.237L431.442,277.204z"/>
	</g>
	<g display="none">
		<g display="inline">
			<path d="M562.687,575H37.313C30.514,575,25,569.486,25,562.686V37.313C25,30.513,30.514,25,37.313,25h525.373
				c6.8,0,12.313,5.513,12.313,12.313v525.373C575,569.486,569.486,575,562.687,575L562.687,575z M49.627,550.373h500.746V49.626
				H49.627V550.373L49.627,550.373z"/>
		</g>
		<path display="inline" d="M204.313,156.77h-29.75v99.923c0,5.802-4.491,10.293-10.293,10.293c-5.615,0-10.293-4.492-10.293-10.293
			V156.77h-29.569c-5.796,0-10.293-4.864-10.293-10.479c0-5.799,4.497-10.29,10.293-10.29h79.905c5.609,0,10.293,4.491,10.293,10.29
			C214.606,151.906,209.923,156.77,204.313,156.77z"/>
		<path display="inline" d="M204.313,354.808h-29.75v99.923c0,5.802-4.491,10.293-10.293,10.293
			c-5.615,0-10.293-4.492-10.293-10.293v-99.923h-29.569c-5.796,0-10.293-4.864-10.293-10.479c0-5.802,4.497-10.293,10.293-10.293
			h79.905c5.609,0,10.293,4.491,10.293,10.293C214.606,349.944,209.923,354.808,204.313,354.808z"/>
		<path display="inline" d="M295.701,268.071c-30.375,0-54.526-24.527-54.526-54.529v-67.164c0-5.85,4.527-10.377,10.378-10.377
			c5.657,0,10.563,4.527,10.563,10.377v67.164c0,18.494,15.094,33.585,33.585,33.585c18.678,0,33.582-15.091,33.582-33.585v-67.164
			c0-5.85,4.72-10.377,10.566-10.377c5.848,0,10.378,4.527,10.378,10.377v67.164C350.228,243.543,325.887,268.071,295.701,268.071z"
			/>
		<path display="inline" d="M475.85,152.958l-36.038,48.932l36.038,49.316c3.229,4.551,2.465,11.192-2.272,14.415
			c-1.894,1.329-3.986,2.086-6.066,2.086c-3.421,0-6.457-1.708-8.538-4.362l-31.865-43.815l-32.052,43.815
			c-2.089,2.654-5.122,4.362-8.352,4.362c-2.272,0-4.358-0.757-6.066-2.086c-4.743-3.223-5.688-9.863-2.468-14.415l36.041-49.316
			l-36.041-48.932c-3.22-4.741-2.275-11.189,2.468-14.415c4.555-3.604,11.189-2.658,14.418,2.275l32.052,43.623l31.865-43.623
			c3.602-4.933,9.861-5.88,14.604-2.275C478.314,141.769,479.078,148.217,475.85,152.958z"/>
		<path display="inline" d="M475.85,350.584l-36.038,48.932l36.038,49.317c3.229,4.551,2.465,11.192-2.272,14.415
			c-1.894,1.329-3.986,2.086-6.066,2.086c-3.421,0-6.457-1.708-8.538-4.362l-31.865-43.815l-32.052,43.815
			c-2.089,2.655-5.122,4.362-8.352,4.362c-2.272,0-4.358-0.758-6.066-2.086c-4.743-3.223-5.688-9.863-2.468-14.415l36.041-49.317
			l-36.041-48.932c-3.22-4.741-2.275-11.189,2.468-14.415c4.555-3.604,11.189-2.657,14.418,2.276l32.052,43.623l31.865-43.623
			c3.602-4.933,9.861-5.88,14.604-2.276C478.314,339.396,479.078,345.844,475.85,350.584z"/>
		<path display="inline" d="M314.568,434.307H268.94l-9.199,24.407c-1.689,4.13-5.631,6.577-9.758,6.577
			c-1.317,0-2.447-0.189-3.571-0.568c-5.444-2.065-8.072-8.072-6.193-13.513l41.485-110.589c1.695-4.133,5.826-6.761,9.957-6.575
			c4.316-0.186,8.261,2.441,9.95,6.575l41.491,110.589c1.882,5.441-0.751,11.447-6.198,13.513c-0.936,0.379-2.249,0.568-3.562,0.568
			c-4.134,0-8.072-2.447-9.575-6.577L314.568,434.307z M306.866,413.657l-15.205-40.367l-15.209,40.367H306.866z"/>
	</g>
	<g display="none">
		<rect x="25" y="25" display="inline" fill="#3077AB" width="550" height="550"/>
		<g display="inline">
			<g>
				<path fill="#FFFFFF" d="M430.502,432.417H177.525c-3.273,0-5.928-2.655-5.928-5.929V173.512c0-3.274,2.654-5.929,5.928-5.929
					h252.977c3.275,0,5.93,2.655,5.93,5.929v252.976C436.432,429.761,433.777,432.417,430.502,432.417L430.502,432.417z
					 M183.455,420.558h241.119V179.441H183.455V420.558L183.455,420.558z"/>
			</g>
			<g>
				<path fill="#FFFFFF" d="M257.939,231.032h-14.326v48.114c0,2.793-2.162,4.957-4.955,4.957c-2.705,0-4.957-2.163-4.957-4.957
					v-48.114h-14.238c-2.791,0-4.955-2.342-4.955-5.046c0-2.792,2.164-4.955,4.955-4.955h38.477c2.701,0,4.955,2.163,4.955,4.955
					C262.895,228.69,260.641,231.032,257.939,231.032z"/>
			</g>
			<g>
				<path fill="#FFFFFF" d="M257.939,326.391h-14.326v48.114c0,2.793-2.162,4.956-4.955,4.956c-2.705,0-4.957-2.163-4.957-4.956
					v-48.114h-14.238c-2.791,0-4.955-2.342-4.955-5.046c0-2.793,2.164-4.957,4.955-4.957h38.477c2.701,0,4.955,2.163,4.955,4.957
					C262.895,324.049,260.641,326.391,257.939,326.391z"/>
			</g>
			<g>
				<path fill="#FFFFFF" d="M301.943,284.625c-14.625,0-26.256-11.811-26.256-26.257v-32.341c0-2.816,2.182-4.997,4.998-4.997
					c2.725,0,5.086,2.18,5.086,4.997v32.341c0,8.905,7.27,16.172,16.172,16.172c8.996,0,16.172-7.267,16.172-16.172v-32.341
					c0-2.816,2.273-4.997,5.086-4.997c2.818,0,4.998,2.18,4.998,4.997v32.341C328.199,272.815,316.48,284.625,301.943,284.625z"/>
			</g>
			<g>
				<path fill="#FFFFFF" d="M388.688,229.197l-17.352,23.562l17.352,23.747c1.555,2.191,1.188,5.389-1.094,6.941
					c-0.912,0.64-1.92,1.004-2.922,1.004c-1.646,0-3.109-0.822-4.109-2.1l-15.344-21.098l-15.434,21.098
					c-1.006,1.278-2.467,2.1-4.021,2.1c-1.096,0-2.1-0.365-2.922-1.004c-2.283-1.552-2.738-4.75-1.188-6.941l17.354-23.747
					l-17.354-23.562c-1.551-2.283-1.096-5.388,1.188-6.941c2.195-1.736,5.389-1.28,6.943,1.096l15.434,21.005l15.344-21.005
					c1.732-2.375,4.748-2.832,7.031-1.096C389.875,223.809,390.242,226.914,388.688,229.197z"/>
			</g>
			<g>
				<path fill="#FFFFFF" d="M388.688,324.357l-17.352,23.562l17.352,23.747c1.555,2.192,1.188,5.389-1.094,6.941
					c-0.912,0.64-1.92,1.005-2.922,1.005c-1.646,0-3.109-0.822-4.109-2.101l-15.344-21.098l-15.434,21.098
					c-1.006,1.278-2.467,2.101-4.021,2.101c-1.096,0-2.1-0.365-2.922-1.005c-2.283-1.552-2.738-4.749-1.188-6.941l17.354-23.747
					l-17.354-23.562c-1.551-2.283-1.096-5.388,1.188-6.941c2.195-1.735,5.389-1.279,6.943,1.096l15.434,21.005l15.344-21.005
					c1.732-2.375,4.748-2.832,7.031-1.096C389.875,318.969,390.242,322.074,388.688,324.357z"/>
			</g>
			<g>
				<path fill="#FFFFFF" d="M311.029,364.67h-21.971l-4.43,11.753c-0.814,1.989-2.711,3.167-4.699,3.167
					c-0.635,0-1.178-0.091-1.719-0.273c-2.621-0.995-3.887-3.887-2.982-6.507l19.977-53.25c0.814-1.99,2.805-3.255,4.793-3.166
					c2.078-0.089,3.979,1.176,4.791,3.166l19.979,53.25c0.906,2.62-0.361,5.512-2.982,6.507c-0.451,0.182-1.084,0.273-1.715,0.273
					c-1.99,0-3.889-1.178-4.613-3.167L311.029,364.67z M307.32,354.728l-7.322-19.438l-7.322,19.438H307.32z"/>
			</g>
		</g>
	</g>
</g>
</svg>
